<mxfile host="app.diagrams.net" modified="2022-11-21T02:35:27.808Z" agent="5.0 (Macintosh; Intel Mac OS X 10_15_7) AppleWebKit/537.36 (KHTML, like Gecko) Chrome/107.0.0.0 Safari/537.36" etag="VIsaW29uQ9l-Ubm-t29V" version="20.5.3" type="github">
  <diagram id="C5RBs43oDa-KdzZeNtuy" name="Page-1">
    <mxGraphModel dx="1426" dy="793" grid="1" gridSize="10" guides="1" tooltips="1" connect="1" arrows="1" fold="1" page="1" pageScale="1" pageWidth="3300" pageHeight="4681" math="0" shadow="0">
      <root>
        <mxCell id="WIyWlLk6GJQsqaUBKTNV-0" />
        <mxCell id="WIyWlLk6GJQsqaUBKTNV-1" parent="WIyWlLk6GJQsqaUBKTNV-0" />
        <mxCell id="fS0RfPB_zb-3uNbmco2U-20" value="N" style="edgeStyle=orthogonalEdgeStyle;rounded=0;orthogonalLoop=1;jettySize=auto;html=1;entryX=0;entryY=0.5;entryDx=0;entryDy=0;entryPerimeter=0;" parent="WIyWlLk6GJQsqaUBKTNV-1" source="fS0RfPB_zb-3uNbmco2U-17" target="Y9BzoArV1n4RT0-dLKw4-0" edge="1">
          <mxGeometry relative="1" as="geometry">
            <mxPoint x="1025" y="250" as="targetPoint" />
          </mxGeometry>
        </mxCell>
        <mxCell id="Y9BzoArV1n4RT0-dLKw4-12" style="edgeStyle=none;rounded=0;orthogonalLoop=1;jettySize=auto;html=1;entryX=0.5;entryY=0;entryDx=0;entryDy=0;entryPerimeter=0;fontSize=16;" parent="WIyWlLk6GJQsqaUBKTNV-1" source="fS0RfPB_zb-3uNbmco2U-17" target="fS0RfPB_zb-3uNbmco2U-24" edge="1">
          <mxGeometry relative="1" as="geometry" />
        </mxCell>
        <mxCell id="Y9BzoArV1n4RT0-dLKw4-13" value="Y" style="edgeLabel;html=1;align=center;verticalAlign=middle;resizable=0;points=[];fontSize=16;" parent="Y9BzoArV1n4RT0-dLKw4-12" vertex="1" connectable="0">
          <mxGeometry x="-0.025" y="3" relative="1" as="geometry">
            <mxPoint as="offset" />
          </mxGeometry>
        </mxCell>
        <mxCell id="fS0RfPB_zb-3uNbmco2U-17" value="data validate" style="strokeWidth=2;html=1;shape=mxgraph.flowchart.decision;whiteSpace=wrap;fontSize=16;" parent="WIyWlLk6GJQsqaUBKTNV-1" vertex="1">
          <mxGeometry x="787.5" y="190" width="150" height="100" as="geometry" />
        </mxCell>
        <mxCell id="fS0RfPB_zb-3uNbmco2U-89" style="edgeStyle=none;rounded=0;orthogonalLoop=1;jettySize=auto;html=1;entryX=0.5;entryY=0;entryDx=0;entryDy=0;fontSize=16;targetPerimeterSpacing=0;" parent="WIyWlLk6GJQsqaUBKTNV-1" source="fS0RfPB_zb-3uNbmco2U-24" target="fS0RfPB_zb-3uNbmco2U-90" edge="1">
          <mxGeometry relative="1" as="geometry">
            <mxPoint x="858.5" y="1610" as="targetPoint" />
          </mxGeometry>
        </mxCell>
        <mxCell id="fS0RfPB_zb-3uNbmco2U-24" value="" style="points=[[0.25,0,0],[0.5,0,0],[0.75,0,0],[1,0.25,0],[1,0.5,0],[1,0.75,0],[0.75,1,0],[0.5,1,0],[0.25,1,0],[0,0.75,0],[0,0.5,0],[0,0.25,0]];shape=mxgraph.bpmn.task;whiteSpace=wrap;rectStyle=rounded;size=10;html=1;taskMarker=abstract;isLoopSub=1;fontSize=16;movable=1;resizable=1;rotatable=1;deletable=1;editable=1;connectable=1;" parent="WIyWlLk6GJQsqaUBKTNV-1" vertex="1">
          <mxGeometry x="495" y="370" width="735" height="750" as="geometry" />
        </mxCell>
        <mxCell id="fS0RfPB_zb-3uNbmco2U-58" style="edgeStyle=orthogonalEdgeStyle;rounded=0;orthogonalLoop=1;jettySize=auto;html=1;entryX=0.5;entryY=0;entryDx=0;entryDy=0;fontSize=16;entryPerimeter=0;" parent="WIyWlLk6GJQsqaUBKTNV-1" source="fS0RfPB_zb-3uNbmco2U-25" target="Y9BzoArV1n4RT0-dLKw4-2" edge="1">
          <mxGeometry relative="1" as="geometry">
            <mxPoint x="720" y="700" as="targetPoint" />
          </mxGeometry>
        </mxCell>
        <mxCell id="fS0RfPB_zb-3uNbmco2U-25" value="vo2do" style="rounded=1;whiteSpace=wrap;html=1;absoluteArcSize=1;arcSize=14;strokeWidth=2;fontSize=16;" parent="WIyWlLk6GJQsqaUBKTNV-1" vertex="1">
          <mxGeometry x="670" y="500" width="100" height="50" as="geometry" />
        </mxCell>
        <mxCell id="fS0RfPB_zb-3uNbmco2U-36" style="edgeStyle=orthogonalEdgeStyle;rounded=0;orthogonalLoop=1;jettySize=auto;html=1;exitX=0.5;exitY=1;exitDx=0;exitDy=0;exitPerimeter=0;fontSize=16;" parent="WIyWlLk6GJQsqaUBKTNV-1" source="fS0RfPB_zb-3uNbmco2U-35" target="fS0RfPB_zb-3uNbmco2U-25" edge="1">
          <mxGeometry relative="1" as="geometry">
            <mxPoint x="720" y="500" as="targetPoint" />
          </mxGeometry>
        </mxCell>
        <mxCell id="fS0RfPB_zb-3uNbmco2U-35" value="begin trx" style="strokeWidth=2;html=1;shape=mxgraph.flowchart.start_2;whiteSpace=wrap;fontSize=16;" parent="WIyWlLk6GJQsqaUBKTNV-1" vertex="1">
          <mxGeometry x="687.5" y="400" width="65" height="65" as="geometry" />
        </mxCell>
        <mxCell id="fS0RfPB_zb-3uNbmco2U-71" style="rounded=0;orthogonalLoop=1;jettySize=auto;html=1;fontSize=16;entryX=0.5;entryY=0;entryDx=0;entryDy=0;" parent="WIyWlLk6GJQsqaUBKTNV-1" source="fS0RfPB_zb-3uNbmco2U-64" target="a_ZMGnw1xoyP6mvaIKJh-0" edge="1">
          <mxGeometry relative="1" as="geometry">
            <mxPoint x="722" y="970" as="targetPoint" />
          </mxGeometry>
        </mxCell>
        <mxCell id="fS0RfPB_zb-3uNbmco2U-64" value="generate groovy text" style="whiteSpace=wrap;html=1;fontSize=16;strokeWidth=2;rounded=1;arcSize=12;" parent="WIyWlLk6GJQsqaUBKTNV-1" vertex="1">
          <mxGeometry x="637.5" y="810" width="170" height="60" as="geometry" />
        </mxCell>
        <mxCell id="Y9BzoArV1n4RT0-dLKw4-9" style="edgeStyle=none;rounded=0;orthogonalLoop=1;jettySize=auto;html=1;entryX=0.5;entryY=0;entryDx=0;entryDy=0;fontSize=16;" parent="WIyWlLk6GJQsqaUBKTNV-1" source="fS0RfPB_zb-3uNbmco2U-66" target="fS0RfPB_zb-3uNbmco2U-64" edge="1">
          <mxGeometry relative="1" as="geometry" />
        </mxCell>
        <mxCell id="fS0RfPB_zb-3uNbmco2U-66" value="redis" style="strokeWidth=2;html=1;shape=mxgraph.flowchart.database;whiteSpace=wrap;fontSize=16;" parent="WIyWlLk6GJQsqaUBKTNV-1" vertex="1">
          <mxGeometry x="1160" y="660" width="60" height="60" as="geometry" />
        </mxCell>
        <mxCell id="fS0RfPB_zb-3uNbmco2U-81" value="commit trx" style="strokeWidth=2;html=1;shape=mxgraph.flowchart.start_2;whiteSpace=wrap;fontSize=16;" parent="WIyWlLk6GJQsqaUBKTNV-1" vertex="1">
          <mxGeometry x="690" y="1030" width="65" height="65" as="geometry" />
        </mxCell>
        <mxCell id="fS0RfPB_zb-3uNbmco2U-93" style="edgeStyle=none;rounded=0;orthogonalLoop=1;jettySize=auto;html=1;entryX=0.5;entryY=0;entryDx=0;entryDy=0;entryPerimeter=0;fontSize=16;targetPerimeterSpacing=0;" parent="WIyWlLk6GJQsqaUBKTNV-1" source="fS0RfPB_zb-3uNbmco2U-90" target="Y9BzoArV1n4RT0-dLKw4-1" edge="1">
          <mxGeometry relative="1" as="geometry">
            <mxPoint x="837.5" y="1800" as="targetPoint" />
          </mxGeometry>
        </mxCell>
        <mxCell id="fS0RfPB_zb-3uNbmco2U-90" value="do2vo" style="rounded=1;whiteSpace=wrap;html=1;absoluteArcSize=1;arcSize=14;strokeWidth=2;fontSize=16;" parent="WIyWlLk6GJQsqaUBKTNV-1" vertex="1">
          <mxGeometry x="807.5" y="1180" width="100" height="40" as="geometry" />
        </mxCell>
        <mxCell id="Y9BzoArV1n4RT0-dLKw4-0" value="&lt;span style=&quot;font-size: 16px;&quot;&gt;throw exception&lt;/span&gt;" style="strokeWidth=2;html=1;shape=mxgraph.flowchart.terminator;whiteSpace=wrap;" parent="WIyWlLk6GJQsqaUBKTNV-1" vertex="1">
          <mxGeometry x="1030" y="210" width="100" height="60" as="geometry" />
        </mxCell>
        <mxCell id="Y9BzoArV1n4RT0-dLKw4-1" value="End" style="strokeWidth=2;html=1;shape=mxgraph.flowchart.terminator;whiteSpace=wrap;fontSize=16;" parent="WIyWlLk6GJQsqaUBKTNV-1" vertex="1">
          <mxGeometry x="807.5" y="1260" width="100" height="60" as="geometry" />
        </mxCell>
        <mxCell id="Y9BzoArV1n4RT0-dLKw4-4" value="" style="edgeStyle=none;rounded=0;orthogonalLoop=1;jettySize=auto;html=1;fontSize=16;" parent="WIyWlLk6GJQsqaUBKTNV-1" source="Y9BzoArV1n4RT0-dLKw4-2" target="Y9BzoArV1n4RT0-dLKw4-3" edge="1">
          <mxGeometry relative="1" as="geometry" />
        </mxCell>
        <mxCell id="Y9BzoArV1n4RT0-dLKw4-10" value="Y" style="edgeLabel;html=1;align=center;verticalAlign=middle;resizable=0;points=[];fontSize=16;" parent="Y9BzoArV1n4RT0-dLKw4-4" vertex="1" connectable="0">
          <mxGeometry x="0.2889" y="1" relative="1" as="geometry">
            <mxPoint as="offset" />
          </mxGeometry>
        </mxCell>
        <mxCell id="Y9BzoArV1n4RT0-dLKw4-7" style="edgeStyle=none;rounded=0;orthogonalLoop=1;jettySize=auto;html=1;entryX=0.5;entryY=0;entryDx=0;entryDy=0;fontSize=16;" parent="WIyWlLk6GJQsqaUBKTNV-1" source="Y9BzoArV1n4RT0-dLKw4-2" target="fS0RfPB_zb-3uNbmco2U-64" edge="1">
          <mxGeometry relative="1" as="geometry" />
        </mxCell>
        <mxCell id="Y9BzoArV1n4RT0-dLKw4-11" value="N" style="edgeLabel;html=1;align=center;verticalAlign=middle;resizable=0;points=[];fontSize=16;" parent="Y9BzoArV1n4RT0-dLKw4-7" vertex="1" connectable="0">
          <mxGeometry x="-0.1867" y="1" relative="1" as="geometry">
            <mxPoint as="offset" />
          </mxGeometry>
        </mxCell>
        <mxCell id="Y9BzoArV1n4RT0-dLKw4-2" value="&lt;pre style=&quot;background-color: rgb(255, 255, 255); font-family: &amp;quot;JetBrains Mono&amp;quot;, monospace; font-size: 9.8pt;&quot;&gt;usergroup判空&lt;/pre&gt;" style="strokeWidth=2;html=1;shape=mxgraph.flowchart.decision;whiteSpace=wrap;fontSize=16;" parent="WIyWlLk6GJQsqaUBKTNV-1" vertex="1">
          <mxGeometry x="615" y="640" width="210" height="100" as="geometry" />
        </mxCell>
        <mxCell id="Y9BzoArV1n4RT0-dLKw4-5" style="edgeStyle=none;rounded=0;orthogonalLoop=1;jettySize=auto;html=1;entryX=0;entryY=0.5;entryDx=0;entryDy=0;entryPerimeter=0;fontSize=16;" parent="WIyWlLk6GJQsqaUBKTNV-1" source="Y9BzoArV1n4RT0-dLKw4-3" target="fS0RfPB_zb-3uNbmco2U-66" edge="1">
          <mxGeometry relative="1" as="geometry" />
        </mxCell>
        <mxCell id="Y9BzoArV1n4RT0-dLKw4-3" value="fetchAndPersist user group bitmap" style="whiteSpace=wrap;html=1;fontSize=16;strokeWidth=2;" parent="WIyWlLk6GJQsqaUBKTNV-1" vertex="1">
          <mxGeometry x="950" y="660" width="120" height="60" as="geometry" />
        </mxCell>
        <mxCell id="a_ZMGnw1xoyP6mvaIKJh-1" style="edgeStyle=none;rounded=0;orthogonalLoop=1;jettySize=auto;html=1;entryX=0.5;entryY=0;entryDx=0;entryDy=0;entryPerimeter=0;" edge="1" parent="WIyWlLk6GJQsqaUBKTNV-1" source="a_ZMGnw1xoyP6mvaIKJh-0" target="fS0RfPB_zb-3uNbmco2U-81">
          <mxGeometry relative="1" as="geometry" />
        </mxCell>
        <mxCell id="a_ZMGnw1xoyP6mvaIKJh-0" value="将创建的规则持久化" style="rounded=1;whiteSpace=wrap;html=1;absoluteArcSize=1;arcSize=14;strokeWidth=2;" vertex="1" parent="WIyWlLk6GJQsqaUBKTNV-1">
          <mxGeometry x="647.5" y="940" width="150" height="50" as="geometry" />
        </mxCell>
        <mxCell id="a_ZMGnw1xoyP6mvaIKJh-3" style="edgeStyle=none;rounded=0;orthogonalLoop=1;jettySize=auto;html=1;entryX=0.5;entryY=0;entryDx=0;entryDy=0;entryPerimeter=0;" edge="1" parent="WIyWlLk6GJQsqaUBKTNV-1" source="a_ZMGnw1xoyP6mvaIKJh-2" target="fS0RfPB_zb-3uNbmco2U-17">
          <mxGeometry relative="1" as="geometry" />
        </mxCell>
        <mxCell id="a_ZMGnw1xoyP6mvaIKJh-2" value="&lt;span style=&quot;font-size: 16px;&quot;&gt;create rule&lt;/span&gt;" style="strokeWidth=2;html=1;shape=mxgraph.flowchart.start_2;whiteSpace=wrap;" vertex="1" parent="WIyWlLk6GJQsqaUBKTNV-1">
          <mxGeometry x="812.5" y="60" width="100" height="100" as="geometry" />
        </mxCell>
      </root>
    </mxGraphModel>
  </diagram>
</mxfile>
